<?xml version="1.0" encoding="UTF-8" standalone="no"?>
<!-- Generator: Adobe Illustrator 22.1.0, SVG Export Plug-In . SVG Version: 6.00 Build 0)  -->

<svg
   version="1.1"
   id="Layer_1"
   x="0px"
   y="0px"
   viewBox="0 0 280.37373 280.37372"
   xml:space="preserve"
   sodipodi:docname="Pirate_Logo_Ship_Gold_Gradient.svg"
   width="280.37372"
   height="280.37372"
   inkscape:version="1.1.2 (0a00cf5339, 2022-02-04)"
   xmlns:inkscape="http://www.inkscape.org/namespaces/inkscape"
   xmlns:sodipodi="http://sodipodi.sourceforge.net/DTD/sodipodi-0.dtd"
   xmlns:xlink="http://www.w3.org/1999/xlink"
   xmlns="http://www.w3.org/2000/svg"
   xmlns:svg="http://www.w3.org/2000/svg"><defs
   id="defs19"><linearGradient
     inkscape:collect="always"
     id="linearGradient936"><stop
       style="stop-color:#b79137;stop-opacity:1"
       offset="0"
       id="stop932" /><stop
       style="stop-color:#efda93;stop-opacity:1"
       offset="1"
       id="stop934" /></linearGradient><linearGradient
     inkscape:collect="always"
     xlink:href="#linearGradient936"
     id="linearGradient940"
     x1="46.774342"
     y1="87.803444"
     x2="255.62607"
     y2="176.2854"
     gradientUnits="userSpaceOnUse" /><linearGradient
     inkscape:collect="always"
     xlink:href="#linearGradient936"
     id="linearGradient8778"
     gradientUnits="userSpaceOnUse"
     x1="46.774342"
     y1="87.803444"
     x2="255.62607"
     y2="176.2854" /><linearGradient
     inkscape:collect="always"
     xlink:href="#linearGradient936"
     id="linearGradient8780"
     gradientUnits="userSpaceOnUse"
     x1="46.774342"
     y1="87.803444"
     x2="255.62607"
     y2="176.2854" /><linearGradient
     inkscape:collect="always"
     xlink:href="#linearGradient936"
     id="linearGradient8782"
     gradientUnits="userSpaceOnUse"
     x1="46.774342"
     y1="87.803444"
     x2="255.62607"
     y2="176.2854" /><linearGradient
     inkscape:collect="always"
     xlink:href="#linearGradient936"
     id="linearGradient8784"
     gradientUnits="userSpaceOnUse"
     x1="46.774342"
     y1="87.803444"
     x2="255.62607"
     y2="176.2854" /><linearGradient
     inkscape:collect="always"
     xlink:href="#linearGradient936"
     id="linearGradient8786"
     gradientUnits="userSpaceOnUse"
     x1="46.774342"
     y1="87.803444"
     x2="255.62607"
     y2="176.2854" /></defs><sodipodi:namedview
   id="namedview17"
   pagecolor="#ffffff"
   bordercolor="#666666"
   borderopacity="1.0"
   inkscape:pageshadow="2"
   inkscape:pageopacity="0.0"
   inkscape:pagecheckerboard="0"
   showgrid="false"
   fit-margin-top="0"
   fit-margin-left="0"
   fit-margin-right="0"
   fit-margin-bottom="0"
   inkscape:zoom="1.515625"
   inkscape:cx="141.52577"
   inkscape:cy="192.3299"
   inkscape:window-width="2298"
   inkscape:window-height="1082"
   inkscape:window-x="26"
   inkscape:window-y="23"
   inkscape:window-maximized="0"
   inkscape:current-layer="Layer_1" />
<style
   type="text/css"
   id="style2">
	.st0{fill:#BB9645;}
	.st1{fill:#0A0B0B;}
	.st2{fill:#FFFFFF;}
	.st3{fill:#231F20;}
	.st4{fill:url(#SVGID_1_);}
	.st5{fill:url(#SVGID_2_);}
	.st6{fill:url(#SVGID_3_);}
	.st7{fill:url(#SVGID_4_);}
	.st8{fill:url(#SVGID_5_);}
	.st9{fill:url(#SVGID_6_);}
	.st10{fill:url(#SVGID_7_);}
	.st11{fill:url(#SVGID_8_);}
	.st12{fill:url(#SVGID_9_);}
	.st13{fill:url(#SVGID_10_);}
	.st14{fill:url(#SVGID_11_);}
	.st15{fill:#1B1B1B;}
	.st16{fill:url(#SVGID_12_);}
	.st17{fill:url(#SVGID_13_);}
	.st18{fill:url(#SVGID_14_);}
	.st19{fill:url(#SVGID_15_);}
	.st20{fill:url(#SVGID_16_);}
	.st21{fill:url(#SVGID_17_);}
	.st22{fill:url(#SVGID_18_);}
	.st23{fill:url(#SVGID_19_);}
	.st24{fill:url(#SVGID_20_);}
	.st25{fill:url(#SVGID_21_);}
	.st26{fill:url(#SVGID_22_);}
</style>
<g
   id="g14"
   style="fill:url(#linearGradient940);fill-opacity:1"
   transform="translate(-2.7279526,-4.7908632)">
	<path
   class="st0"
   d="m 66.1,184.2 c 4.6,-0.9 14.6,-2.7 26.3,-4.6 1.5,-0.2 2.8,1.1 2.4,2.6 -0.7,2.7 -1.5,5.4 -2.5,8.2 -0.3,1 0.5,2 1.6,1.8 52.9,-10.2 90.3,-28 121.4,-52.8 1.6,-1.3 2.7,-3.2 3,-5.3 2.3,-15.8 -2.3,-24.8 -7.1,-29 -5.1,-4.6 -9,-9.2 -36.7,-10.9 -15.7,-0.6 -24.3,0.2 -27.1,0.5 -0.5,0.1 -0.7,0.6 -0.5,1 2.8,4.4 15.1,24.9 11.4,43.7 l -6.1,-21.3 c -4,-10.9 -10.2,-21.7 -13.1,-25.5 -0.8,-1.1 -0.4,-2.2 0.9,-2.4 3.7,-0.6 11.2,-0.9 19.6,-1.5 9.9,-0.4 19.4,-0.1 25.7,0.7 -7.1,-34.4 -22,-47 -55.6,-49.2 v -33 c 0,-0.8 -0.7,-1.5 -1.5,-1.5 h -4.9 c -0.8,0 -1.5,0.7 -1.5,1.5 V 39.9 C 93.9,39.1 69.7,41.7 62,42.5 c -1,0.1 -1.5,1.2 -1,2.1 2.7,4.5 13.4,17.7 17.7,36.3 -10,-0.2 -20.9,1.1 -31.4,5.2 -1.1,0.4 -1.4,1.8 -0.7,2.7 27.7,34.1 19.6,81.6 17.1,93.4 0,1.1 1.1,2.3 2.4,2 z"
   id="path4"
   style="fill:url(#linearGradient8778);fill-opacity:1" />
	<path
   class="st0"
   d="m 98.9,19.9 c 0,0 -0.7,-2.9 -0.1,-5.5 7.4,-1.6 18.2,1.5 18.2,1.5 0,0 0,-4.9 0,-8.9 -5.6,-2.6 -18,-2.2 -22,-1.3 -4,0.9 -4.8,2.9 -5.6,4.6 -8,0.3 -16.5,2.2 -16.5,2.2 l 5.3,3.2 -4.4,4.9 c 7.3,-3.1 25.1,-0.7 25.1,-0.7 z"
   id="path6"
   style="fill:url(#linearGradient8780);fill-opacity:1" />
	<path
   class="st0"
   d="m 233.6,241.7 c -11.3,-3.1 -9.1,-3.1 -22.6,-5.7 7.6,-9.1 31.5,-39.2 25.6,-48.8 -7,-11.3 -15.1,-18.8 -12.5,-29.6 2.6,-10.8 20.7,-23.3 24.8,-26.8 4.1,-3.5 -3.2,-9.9 -6.4,-7.1 -3.2,2.8 -5.5,4.9 -13.3,10.6 -9.6,7 -17.4,15.7 -16.6,27.9 0.8,10.9 0.9,41.8 -13.3,58.3 -0.7,0.9 -2.1,0 -1.6,-1.1 3.4,-7.7 4.3,-18.2 3.6,-26.7 -29.4,14.7 -55.7,17.6 -73.1,17.5 -1,0 -1.2,-1.5 -0.2,-1.7 28.1,-5.7 70.3,-20.4 72.6,-26.7 2.6,-7 -1.1,-19.7 -1.1,-19.7 0,0 -13.9,6.9 -33.9,14.9 -6.6,2.9 -13.8,5.6 -21.6,8.1 -1.7,0.5 -3.4,1.1 -5,1.6 -22.7,7.5 -53.3,14.4 -70.2,13.8 -13.7,-0.5 -22.7,-1.8 -25.6,-2.2 -0.5,-0.1 -1,0.3 -1,0.9 0.3,5.1 2.1,26.7 11.9,36.9 -2.2,0.5 -6.1,1.5 -9.1,3 -2.9,1.5 -11.1,9.5 -5,8.8 34.3,-3.9 78.4,-7.5 99.3,-6.9 22,0.6 65.3,7.4 103.6,13.4 6,0.9 -3.4,-11.1 -9.3,-12.7 z"
   id="path8"
   style="fill:url(#linearGradient8782);fill-opacity:1" />
	<path
   class="st0"
   d="m 223.1,258.9 c -20,-4.4 -53.4,-10.8 -82.3,-11.1 -36.7,-0.4 -70.3,4.5 -96.9,10.2 -6,1.3 -4.5,10.3 1.6,9.6 34.3,-3.9 74.5,-7.7 95.3,-7.1 17,0.5 55.4,4.4 80.5,8.1 6.2,0.9 8,-8.3 1.8,-9.7 z"
   id="path10"
   style="fill:url(#linearGradient8784);fill-opacity:1" />
	<path
   class="st0"
   d="m 184.5,276.2 c -14.1,-3.1 -30.2,-5.5 -46.7,-5.7 -20.9,-0.3 -40,2.5 -55.2,5.8 -3.4,0.7 -2.6,5.8 0.9,5.4 19.5,-2.2 42.4,-4.4 54.3,-4.1 9.7,0.3 27.7,2.6 45.4,5.3 4.4,0.7 5.6,-5.8 1.3,-6.7 z"
   id="path12"
   style="fill:url(#linearGradient8786);fill-opacity:1" />
</g>
</svg>
